<?xml version="1.0" encoding="UTF-8"?>
<svg xmlns="http://www.w3.org/2000/svg" xmlns:xlink="http://www.w3.org/1999/xlink" viewBox="0 0 1200 1200">
  <defs>
    <style>
      .cls-1 {
        fill: url(#Dégradé_sans_nom_312);
      }

      .cls-2 {
        fill: url(#radial-gradient-5);
      }

      .cls-2, .cls-3, .cls-4, .cls-5, .cls-6, .cls-7, .cls-8 {
        mix-blend-mode: screen;
      }

      .cls-2, .cls-5 {
        opacity: .5;
      }

      .cls-9 {
        fill: #93d3eb;
      }

      .cls-3 {
        opacity: .03;
        stroke: #fff;
        stroke-width: 2px;
      }

      .cls-3, .cls-10 {
        fill: none;
      }

      .cls-3, .cls-11 {
        stroke-miterlimit: 10;
      }

      .cls-12 {
        fill: url(#Dégradé_sans_nom_104);
      }

      .cls-4 {
        fill: url(#radial-gradient-6);
      }

      .cls-13 {
        fill: #6091b2;
      }

      .cls-14 {
        fill: #008c8f;
      }

      .cls-5 {
        fill: url(#radial-gradient-2);
      }

      .cls-6 {
        fill: url(#radial-gradient);
      }

      .cls-6, .cls-8 {
        opacity: .15;
      }

      .cls-15 {
        isolation: isolate;
      }

      .cls-7 {
        fill: url(#radial-gradient-3);
      }

      .cls-8 {
        fill: url(#radial-gradient-4);
      }

      .cls-16 {
        fill: #6ec8e5;
      }

      .cls-17 {
        fill: url(#Dégradé_sans_nom_214);
      }

      .cls-18 {
        fill: url(#Dégradé_sans_nom_112);
      }

      .cls-19 {
        fill: url(#Dégradé_sans_nom_109);
      }

      .cls-20 {
        fill: url(#Dégradé_sans_nom_218);
      }

      .cls-21 {
        fill: #689dc2;
      }

      .cls-11 {
        fill: url(#Dégradé_sans_nom_844);
        stroke: #1d1d1b;
      }
    </style>
    <linearGradient id="Dégradé_sans_nom_844" data-name="Dégradé sans nom 844" x1="230.13" y1="966.68" x2="976.13" y2="220.69" gradientUnits="userSpaceOnUse">
      <stop offset="0" stop-color="#66681a"/>
      <stop offset=".43" stop-color="#74721b"/>
      <stop offset=".96" stop-color="#8c841e"/>
    </linearGradient>
    <linearGradient id="Dégradé_sans_nom_218" data-name="Dégradé sans nom 218" x1="801.7" y1="1040.31" x2="666.82" y2="962.44" gradientUnits="userSpaceOnUse">
      <stop offset=".02" stop-color="#008c8f"/>
      <stop offset=".13" stop-color="#008386"/>
      <stop offset=".31" stop-color="#006d6f"/>
      <stop offset=".53" stop-color="#00494a"/>
      <stop offset=".56" stop-color="#044"/>
    </linearGradient>
    <linearGradient id="Dégradé_sans_nom_112" data-name="Dégradé sans nom 112" x1="898.08" y1="336.53" x2="841.95" y2="239.31" gradientUnits="userSpaceOnUse">
      <stop offset="0" stop-color="#cee7dc"/>
      <stop offset=".16" stop-color="#c6e1da"/>
      <stop offset=".41" stop-color="#b1d2d5"/>
      <stop offset=".71" stop-color="#90b9cc"/>
      <stop offset="1" stop-color="#699dc3"/>
    </linearGradient>
    <radialGradient id="radial-gradient" cx="1538.09" cy="401.95" fx="1538.09" fy="401.95" r="8.03" gradientTransform="translate(-482.86 22.04) scale(.88)" gradientUnits="userSpaceOnUse">
      <stop offset="0" stop-color="#200"/>
      <stop offset=".73" stop-color="#984023"/>
      <stop offset="1" stop-color="#200"/>
    </radialGradient>
    <radialGradient id="radial-gradient-2" cx="1538.09" cy="401.95" fx="1538.09" fy="401.95" r="4.01" gradientTransform="translate(-482.86 22.04) scale(.88)" gradientUnits="userSpaceOnUse">
      <stop offset=".15" stop-color="#fff"/>
      <stop offset=".21" stop-color="#e4d2d3"/>
      <stop offset=".29" stop-color="#c49c9d"/>
      <stop offset=".36" stop-color="#ac7476"/>
      <stop offset=".42" stop-color="#9e5b5e"/>
      <stop offset=".45" stop-color="#995356"/>
      <stop offset=".57" stop-color="#6a3234"/>
      <stop offset=".69" stop-color="#431718"/>
      <stop offset=".79" stop-color="#2a0606"/>
      <stop offset=".85" stop-color="#200"/>
      <stop offset=".86" stop-color="#260100"/>
      <stop offset=".86" stop-color="#320703"/>
      <stop offset=".87" stop-color="#471008"/>
      <stop offset=".88" stop-color="#641d0f"/>
      <stop offset=".89" stop-color="#892d18"/>
      <stop offset=".9" stop-color="#b74122"/>
      <stop offset=".9" stop-color="#d34e29"/>
      <stop offset=".9" stop-color="#c84926"/>
      <stop offset=".91" stop-color="#9c351c"/>
      <stop offset=".93" stop-color="#762513"/>
      <stop offset=".94" stop-color="#57170c"/>
      <stop offset=".95" stop-color="#400d06"/>
      <stop offset=".97" stop-color="#2f0503"/>
      <stop offset=".98" stop-color="#250100"/>
      <stop offset="1" stop-color="#200"/>
    </radialGradient>
    <radialGradient id="radial-gradient-3" cx="1538.09" cy="401.95" fx="1538.09" fy="401.95" r="3.35" gradientTransform="translate(-482.86 22.04) scale(.88)" gradientUnits="userSpaceOnUse">
      <stop offset=".15" stop-color="#fff"/>
      <stop offset=".28" stop-color="#c2c2c2"/>
      <stop offset=".43" stop-color="#878787"/>
      <stop offset=".56" stop-color="#575757"/>
      <stop offset=".69" stop-color="#313131"/>
      <stop offset=".81" stop-color="#161616"/>
      <stop offset=".92" stop-color="#050505"/>
      <stop offset="1" stop-color="#000"/>
    </radialGradient>
    <radialGradient id="radial-gradient-4" cx="1489.56" cy="488.12" fx="1489.56" fy="488.12" r="8.03" xlink:href="#radial-gradient"/>
    <radialGradient id="radial-gradient-5" cx="1489.56" cy="488.12" fx="1489.56" fy="488.12" r="4.01" xlink:href="#radial-gradient-2"/>
    <radialGradient id="radial-gradient-6" cx="1489.56" cy="488.12" fx="1489.56" fy="488.12" r="3.35" xlink:href="#radial-gradient-3"/>
    <linearGradient id="Dégradé_sans_nom_312" data-name="Dégradé sans nom 312" x1="960.94" y1="293.56" x2="596.74" y2="657.76" gradientUnits="userSpaceOnUse">
      <stop offset="0" stop-color="#59bba6"/>
      <stop offset=".14" stop-color="#55b39f"/>
      <stop offset=".35" stop-color="#4a9f8d"/>
      <stop offset=".6" stop-color="#387d6f"/>
      <stop offset=".89" stop-color="#1f4f46"/>
      <stop offset=".93" stop-color="#1b483f"/>
    </linearGradient>
    <linearGradient id="Dégradé_sans_nom_214" data-name="Dégradé sans nom 214" x1="790.37" y1="660.59" x2="624.76" y2="756.21" gradientUnits="userSpaceOnUse">
      <stop offset=".02" stop-color="#008c8f"/>
      <stop offset=".2" stop-color="#007a7c"/>
      <stop offset=".56" stop-color="#004d4e"/>
      <stop offset=".64" stop-color="#044"/>
    </linearGradient>
    <linearGradient id="Dégradé_sans_nom_109" data-name="Dégradé sans nom 109" x1="330.22" y1="469.58" x2="190.27" y2="711.99" gradientUnits="userSpaceOnUse">
      <stop offset="0" stop-color="#cee7dc"/>
      <stop offset=".09" stop-color="#b5d5d6"/>
      <stop offset=".23" stop-color="#9ac0cf"/>
      <stop offset=".38" stop-color="#84b1c9"/>
      <stop offset=".54" stop-color="#74a5c5"/>
      <stop offset=".73" stop-color="#6b9fc3"/>
      <stop offset="1" stop-color="#699dc3"/>
    </linearGradient>
    <linearGradient id="Dégradé_sans_nom_104" data-name="Dégradé sans nom 104" x1="854.25" y1="297.69" x2="508.91" y2="895.83" gradientUnits="userSpaceOnUse">
      <stop offset="0" stop-color="#cee7dc"/>
      <stop offset="1" stop-color="#699dc3"/>
    </linearGradient>
  </defs>
  <g class="cls-15">
    <g id="Calque_1" data-name="Calque 1">
      <circle class="cls-11" cx="592.17" cy="604.64" r="512"/>
      <path class="cls-10" d="M808.83,281.36s0,0,0,.02"/>
      <path class="cls-10" d="M795.03,281.54c-.11.21-.23.41-.33.62"/>
      <path class="cls-20" d="M827.62,968.18c7.57-3.31,14.97-7.03,22.17-11.17-60.7,83-189.93,124.02-215.14,96.99-11.59-12.43,2.56-35.22,20.37-71.12,1.36.19,2.71.36,4.08.53,16.29,2.03,32.93,3.07,49.46,3.07,66.73,0,116.18-17.25,118.25-17.98l.4-.15.4-.17Z"/>
      <path class="cls-14" d="M862.56,934.46c.76-.54,1.5-1.08,2.24-1.61.12-.23.24-.46.36-.69l7.43-17.02s0,0,0,0c.57-1.53,1.11-3.08,1.61-4.62.57-1.68,1.09-3.37,1.58-5.05-1.81.42-3.63.81-5.44,1.19-.99.2-1.99.4-2.98.6-1.99.4-3.99.77-5.99,1.12-1.29.23-2.58.45-3.88.66-.71.12-1.42.23-2.14.35,0,0-.3.05-.86.13-.17.03-.34.06-.52.08-.17.02-.35.05-.54.08-5.31.76-20.94,2.82-38.06,3.4-.66.02-1.32.05-1.98.06-.4.02-.82.02-1.22.03-.29,0-.65.02-1.05.02-1.17.02-2.35.03-3.53.04-.99,0-1.72,0-1.72,0-.25,0-.5,0-.76,0-.29,0-.6-.02-.91-.04-.52-.02-1.07-.06-1.64-.11-.91-.08-1.89-.19-2.92-.33-.65-.09-1.32-.19-2-.3l-.15-.02c-.37-.06-.74-.12-1.13-.19-.46-.08-.94-.16-1.41-.26l-.27-.05c-.24-.04-.49-.09-.74-.14-.03,0-.06-.02-.1-.02-.28-.06-.57-.11-.86-.17-1.65-.34-3.39-.73-5.22-1.17-.43-.1-.86-.21-1.3-.31-.97-.24-1.96-.49-2.98-.77-.39-.1-.78-.2-1.17-.31-.55-.15-1.11-.3-1.68-.46-.57-.15-1.13-.31-1.71-.48-.52-.15-1.05-.3-1.58-.46-1.07-.31-2.16-.65-3.28-.99-.54-.17-1.09-.34-1.64-.52-.56-.17-1.12-.36-1.7-.54-.48-.15-.95-.31-1.43-.46-3.56-1.16-7.3-2.46-11.18-3.89-.63-.23-1.26-.46-1.9-.7-1.28-.47-2.56-.96-3.87-1.46-.65-.26-1.31-.51-1.96-.77-3.3-1.29-6.69-2.67-10.16-4.14-.69-.29-1.38-.58-2.08-.89-.88-.37-1.76-.76-2.66-1.15-.52-.23-1.04-.46-1.57-.69-.71-.31-1.42-.63-2.14-.95-1.43-.64-2.87-1.3-4.33-1.97-1.09-.5-2.18-1.01-3.29-1.53-1.1-.52-2.2-1.04-3.32-1.57-1.02-.49-2.05-1-3.08-1.51-.22-.1-.44-.22-.65-.32-.78-.38-1.56-.77-2.34-1.16-.03-.02-.06-.03-.1-.06-.06-.03-.14-.06-.21-.1-.08-.04-.16-.09-.25-.13-3.88-1.95-7.83-3.99-11.81-6.14-.99-.53-1.99-1.07-3-1.62-2-1.1-4.01-2.21-6.03-3.36-.89,5.37-1.92,10.77-3.1,16.19-.28,1.3-.57,2.59-.87,3.88-4.16,18.03-9.52,34.44-15.33,49.33-1.29,3.33-2.61,6.58-3.95,9.76-.27.65-.53,1.29-.81,1.93-1.69,3.99-3.4,7.86-5.12,11.61-1.19,2.62-2.39,5.19-3.58,7.7,1.11.14,2.22.27,3.33.4,14.64,1.7,29.53,2.58,44.63,2.58h0l154-39.9Z"/>
      <path class="cls-9" d="M941.12,311.68c-33.28-27.75-71.59-49.66-113.38-64.16,2.3-3.98,4.53-7.8,6.65-11.45,1.06-1.82,2.09-3.59,3.1-5.31,53.59,24.16,87.2,60.54,103.62,80.93Z"/>
      <path class="cls-16" d="M808.83,281.37c.42,0,.83,0,1.25,0,.97,0,1.94.03,2.91.06,29.29.64,57.61,5.27,84.41,13.39.24.07.45.13.64.19.21.06.39.11.52.15.06.02.11.03.16.05.04.02.07.02.1.03s.03,0,.03,0c1.92.59,3.83,1.19,5.73,1.82.81.26,1.61.53,2.41.81,1.47.48,2.93.99,4.38,1.52.49.17.98.34,1.46.52.57.21,1.15.41,1.71.62,1.99.73,3.96,1.47,5.91,2.24.73.27,1.45.57,2.18.86,1.99.79,3.96,1.6,5.93,2.43.52.22,1.03.44,1.55.66,1.09.46,2.17.94,3.25,1.41.02,0,.03.02.05.02,1.11.49,2.23.99,3.33,1.5,1.46.66,2.91,1.34,4.36,2.03-33.28-27.75-71.59-49.66-113.38-64.16-5.91,10.23-12.35,21.55-18.91,33.84v.02Z"/>
      <path class="cls-10" d="M795.03,281.54c-.11.21-.23.41-.33.62"/>
      <path class="cls-18" d="M941.12,311.68c-1.45-.69-2.9-1.36-4.36-2.03-1.11-.51-2.22-1.01-3.33-1.5-.02,0-.03,0-.05-.02-1.08-.48-2.16-.95-3.25-1.41-.52-.23-1.03-.44-1.55-.66-1.97-.83-3.95-1.64-5.93-2.43-.73-.29-1.45-.57-2.18-.86-1.95-.77-3.92-1.51-5.91-2.24-.57-.21-1.14-.41-1.71-.62-.48-.18-.97-.35-1.46-.52-1.45-.52-2.91-1.03-4.38-1.52-.81-.27-1.61-.54-2.41-.81-1.91-.63-3.81-1.24-5.73-1.82,0,0,0,0-.03,0-.02,0-.06-.02-.1-.03-.05-.02-.1-.03-.16-.05-.13-.04-.31-.09-.52-.15-.19-.06-.4-.11-.64-.19-7.53-2.18-43.36-11.99-82.41-13.32-.66-.02-1.33-.05-2-.06-.97-.02-1.94-.05-2.91-.06-.41,0-.83-.02-1.24-.02,6.56-12.29,13-23.61,18.91-33.84,41.78,14.5,80.09,36.41,113.38,64.16Z"/>
      <circle class="cls-9" cx="866.35" cy="393.37" r="30.8"/>
      <circle class="cls-9" cx="866.35" cy="393.37" r="30.8"/>
      <g>
        <line class="cls-10" x1="877.99" y1="375.9" x2="875.09" y2="377.96"/>
        <ellipse class="cls-10" cx="877.99" cy="375.9" rx="2.96" ry="2.95"/>
        <ellipse class="cls-10" cx="877.99" cy="375.9" rx="3.55" ry="3.53"/>
        <polyline class="cls-10" points="877.99 375.9 877.89 375.94 877.99 375.9 878.08 375.87 877.99 375.9 877.95 375.81 877.99 375.9 878.02 376 877.99 375.9 875.12 383.14 877.99 375.9 880.85 368.67 877.99 375.9 870.71 373.05 877.99 375.9 885.26 378.76 877.99 375.9 876.16 376.05 877.99 375.9 879.81 375.76 877.99 375.9 877.84 374.09 877.99 375.9 878.14 377.72 877.99 375.9 871.39 391.81 877.99 375.9 884.58 360 877.99 375.9 862 369.34 877.99 375.9 893.97 382.47 877.99 375.9 868.32 386.74 877.99 375.9 887.65 365.07 877.99 375.9 867.1 366.29 877.99 375.9 888.87 385.52 877.99 375.9 877.88 375.93 877.99 375.9 878.09 375.88 877.99 375.9 877.96 375.8 877.99 375.9 878.01 376.01 877.99 375.9 863.37 376.24 877.99 375.9 892.61 375.57 877.99 375.9 877.65 361.36 877.99 375.9 878.32 390.45 877.99 375.9 864.98 378.77 877.99 375.9 890.99 373.03 877.99 375.9 875.1 362.96 877.99 375.9 880.87 388.85 877.99 375.9 874.97 377.23 877.99 375.9 881 374.58 877.99 375.9 876.65 372.9 877.99 375.9 879.32 378.91 877.99 375.9 874.49 385.81 877.99 375.9 881.48 366 877.99 375.9 868.03 372.43 877.99 375.9 887.94 379.38 877.99 375.9 863.32 376.68 877.99 375.9 892.65 375.13 877.99 375.9 877.21 361.31 877.99 375.9 878.76 390.5 877.99 375.9 874.57 379.85 877.99 375.9 881.4 371.96 877.99 375.9 874.02 372.51 877.99 375.9 881.95 379.3 877.99 375.9 875.3 377.33 877.99 375.9 880.67 374.48 877.99 375.9 876.56 373.23 877.99 375.9 879.42 378.58 877.99 375.9 873.47 375.48 877.99 375.9 882.5 376.33 877.99 375.9 878.42 371.41 877.99 375.9 877.55 380.4 877.99 375.9 867.44 377.93 877.99 375.9 888.53 373.88 877.99 375.9 875.95 365.42 877.99 375.9 880.02 386.39"/>
        <ellipse class="cls-6" cx="877.99" cy="375.9" rx="7.1" ry="7.07"/>
        <ellipse class="cls-5" cx="877.99" cy="375.9" rx="3.55" ry="3.53"/>
        <ellipse class="cls-7" cx="877.99" cy="375.9" rx="2.96" ry="2.95"/>
        <polyline class="cls-3" points="877.99 375.9 877.89 375.94 877.99 375.9 878.08 375.87 877.99 375.9 877.95 375.81 877.99 375.9 878.02 376 877.99 375.9 875.12 383.14 877.99 375.9 880.85 368.67 877.99 375.9 870.71 373.05 877.99 375.9 885.26 378.76 877.99 375.9 876.16 376.05 877.99 375.9 879.81 375.76 877.99 375.9 877.84 374.09 877.99 375.9 878.14 377.72 877.99 375.9 871.39 391.81 877.99 375.9 884.58 360 877.99 375.9 862 369.34 877.99 375.9 893.97 382.47 877.99 375.9 868.32 386.74 877.99 375.9 887.65 365.07 877.99 375.9 867.1 366.29 877.99 375.9 888.87 385.52 877.99 375.9 877.88 375.93 877.99 375.9 878.09 375.88 877.99 375.9 877.96 375.8 877.99 375.9 878.01 376.01 877.99 375.9 863.37 376.24 877.99 375.9 892.61 375.57 877.99 375.9 877.65 361.36 877.99 375.9 878.32 390.45 877.99 375.9 864.98 378.77 877.99 375.9 890.99 373.03 877.99 375.9 875.1 362.96 877.99 375.9 880.87 388.85 877.99 375.9 874.97 377.23 877.99 375.9 881 374.58 877.99 375.9 876.65 372.9 877.99 375.9 879.32 378.91 877.99 375.9 874.49 385.81 877.99 375.9 881.48 366 877.99 375.9 868.03 372.43 877.99 375.9 887.94 379.38 877.99 375.9 863.32 376.68 877.99 375.9 892.65 375.13 877.99 375.9 877.21 361.31 877.99 375.9 878.76 390.5 877.99 375.9 874.57 379.85 877.99 375.9 881.4 371.96 877.99 375.9 874.02 372.51 877.99 375.9 881.95 379.3 877.99 375.9 875.3 377.33 877.99 375.9 880.67 374.48 877.99 375.9 876.56 373.23 877.99 375.9 879.42 378.58 877.99 375.9 873.47 375.48 877.99 375.9 882.5 376.33 877.99 375.9 878.42 371.41 877.99 375.9 877.55 380.4 877.99 375.9 867.44 377.93 877.99 375.9 888.53 373.88 877.99 375.9 875.95 365.42 877.99 375.9 880.02 386.39"/>
      </g>
      <circle class="cls-9" cx="816.31" cy="462.17" r="30.8"/>
      <circle class="cls-9" cx="816.31" cy="462.17" r="30.8"/>
      <g>
        <line class="cls-10" x1="835.05" y1="451.77" x2="832.16" y2="453.82"/>
        <ellipse class="cls-10" cx="835.05" cy="451.77" rx="2.96" ry="2.95"/>
        <ellipse class="cls-10" cx="835.05" cy="451.77" rx="3.55" ry="3.53"/>
        <polyline class="cls-10" points="835.05 451.77 834.96 451.8 835.05 451.77 835.14 451.73 835.05 451.77 835.01 451.68 835.05 451.77 835.09 451.86 835.05 451.77 832.18 459.01 835.05 451.77 837.91 444.53 835.05 451.77 827.77 448.92 835.05 451.77 842.32 454.62 835.05 451.77 833.22 451.92 835.05 451.77 836.87 451.62 835.05 451.77 834.9 449.95 835.05 451.77 835.2 453.58 835.05 451.77 828.45 467.67 835.05 451.77 841.65 435.86 835.05 451.77 819.07 445.2 835.05 451.77 851.03 458.33 835.05 451.77 825.38 462.6 835.05 451.77 844.72 440.93 835.05 451.77 824.16 442.15 835.05 451.77 845.94 461.39 835.05 451.77 834.94 451.79 835.05 451.77 835.15 451.74 835.05 451.77 835.03 451.66 835.05 451.77 835.07 451.87 835.05 451.77 820.43 452.1 835.05 451.77 849.67 451.44 835.05 451.77 834.72 437.22 835.05 451.77 835.38 466.31 835.05 451.77 822.04 454.64 835.05 451.77 848.06 448.9 835.05 451.77 832.16 438.82 835.05 451.77 837.93 464.71 835.05 451.77 832.03 453.09 835.05 451.77 838.07 450.44 835.05 451.77 833.71 448.76 835.05 451.77 836.38 454.77 835.05 451.77 831.56 461.67 835.05 451.77 838.54 441.86 835.05 451.77 825.1 448.29 835.05 451.77 845 455.24 835.05 451.77 820.38 452.54 835.05 451.77 849.72 450.99 835.05 451.77 834.27 437.17 835.05 451.77 835.83 466.36 835.05 451.77 831.64 455.71 835.05 451.77 838.46 447.82 835.05 451.77 831.08 448.37 835.05 451.77 839.01 455.16 835.05 451.77 832.36 453.19 835.05 451.77 837.74 450.34 835.05 451.77 833.62 449.09 835.05 451.77 836.48 454.44 835.05 451.77 830.54 451.34 835.05 451.77 839.56 452.2 835.05 451.77 835.48 447.28 835.05 451.77 834.62 456.26 835.05 451.77 824.51 453.79 835.05 451.77 845.59 449.74 835.05 451.77 833.02 441.28 835.05 451.77 837.08 462.26"/>
        <ellipse class="cls-8" cx="835.05" cy="451.77" rx="7.1" ry="7.07"/>
        <ellipse class="cls-2" cx="835.05" cy="451.77" rx="3.55" ry="3.53"/>
        <ellipse class="cls-4" cx="835.05" cy="451.77" rx="2.96" ry="2.95"/>
        <polyline class="cls-3" points="835.05 451.77 834.96 451.8 835.05 451.77 835.14 451.73 835.05 451.77 835.01 451.68 835.05 451.77 835.09 451.86 835.05 451.77 832.18 459.01 835.05 451.77 837.91 444.53 835.05 451.77 827.77 448.92 835.05 451.77 842.32 454.62 835.05 451.77 833.22 451.92 835.05 451.77 836.87 451.62 835.05 451.77 834.9 449.95 835.05 451.77 835.2 453.58 835.05 451.77 828.45 467.67 835.05 451.77 841.65 435.86 835.05 451.77 819.07 445.2 835.05 451.77 851.03 458.33 835.05 451.77 825.38 462.6 835.05 451.77 844.72 440.93 835.05 451.77 824.16 442.15 835.05 451.77 845.94 461.39 835.05 451.77 834.94 451.79 835.05 451.77 835.15 451.74 835.05 451.77 835.03 451.66 835.05 451.77 835.07 451.87 835.05 451.77 820.43 452.1 835.05 451.77 849.67 451.44 835.05 451.77 834.72 437.22 835.05 451.77 835.38 466.31 835.05 451.77 822.04 454.64 835.05 451.77 848.06 448.9 835.05 451.77 832.16 438.82 835.05 451.77 837.93 464.71 835.05 451.77 832.03 453.09 835.05 451.77 838.07 450.44 835.05 451.77 833.71 448.76 835.05 451.77 836.38 454.77 835.05 451.77 831.56 461.67 835.05 451.77 838.54 441.86 835.05 451.77 825.1 448.29 835.05 451.77 845 455.24 835.05 451.77 820.38 452.54 835.05 451.77 849.72 450.99 835.05 451.77 834.27 437.17 835.05 451.77 835.83 466.36 835.05 451.77 831.64 455.71 835.05 451.77 838.46 447.82 835.05 451.77 831.08 448.37 835.05 451.77 839.01 455.16 835.05 451.77 832.36 453.19 835.05 451.77 837.74 450.34 835.05 451.77 833.62 449.09 835.05 451.77 836.48 454.44 835.05 451.77 830.54 451.34 835.05 451.77 839.56 452.2 835.05 451.77 835.48 447.28 835.05 451.77 834.62 456.26 835.05 451.77 824.51 453.79 835.05 451.77 845.59 449.74 835.05 451.77 833.02 441.28 835.05 451.77 837.08 462.26"/>
      </g>
      <path class="cls-1" d="M826.26,225.99c-3.19,5.48-6.64,11.38-10.27,17.67-6.56,11.39-13.72,24.07-20.96,37.88-.11.21-.23.41-.33.62-37.63,71.88-77.71,174.34-53.02,287.61,20.62,94.6,75.31,145.69,55.61,166.82-28.91,31.01-194.73-27.54-236.96-136.27-26.54-68.35.11-145.31,46.16-214.69,15.91-23.98,34.14-47.05,53.29-68.55,30.08-33.77,62.44-63.66,91.65-87.07,7.65-6.13,15.07-11.81,22.2-17,36.33-26.51,64.53-40.24,71.69-35.02,5.97,4.35-3.5,21.27-19.05,47.99Z"/>
      <path class="cls-17" d="M879.03,892.25c-1.82.45-3.65.89-5.47,1.3-1.73.4-3.59.8-5.63,1.23-.96.19-1.91.39-2.92.59-1.82.36-3.7.71-5.75,1.07-2.11.37-4,.69-5.82.98-.05,0-.94.14-.94.14l-.15.02s-.53.08-.72.11c-5.68.81-20.44,2.72-36.7,3.27h-.21c-.54.02-1.08.05-1.62.06h-.21c-.31.02-.62.02-.99.03-1.68.04-5.51.06-6.03.06-13.21-.06-59.25-13.19-110.62-43.01,24.29-192.84-128.6-348.13-108.61-362.7,26-18.96,329.31,211.93,292.4,396.84Z"/>
      <path class="cls-9" d="M360.16,723.02h9.87c-.49-1.26-.98-2.53-1.45-3.79-.03-.07-.06-.15-.08-.22-.07-.19-.15-.38-.22-.57-.19-.48-.36-.96-.54-1.45-.11-.3-.22-.61-.33-.9-.02-.06-.04-.12-.06-.19l-.24-.65c-.16-.43-.31-.86-.47-1.29-.12-.32-.23-.65-.35-.97-.25-.69-.49-1.38-.73-2.08h12.74l3.02,7.69c.36.93.73,1.85,1.1,2.78l.06.15c.16.43.34.86.51,1.28l.06.13s.02.06.03.08c.87,2.16,1.79,4.34,2.81,6.71.21.51.41.97.61,1.41l.19.2.87,2.22.14.31c.19.42.37.85.57,1.27l.11.25c.33.75.67,1.5,1.02,2.24,2.52,5.47,5.22,10.96,8.07,16.36l.04.08c.19.37.38.73.57,1.09.05.08.09.17.14.25l.09.16c.27.52.54,1.03.82,1.53l.06.1c1.64,3.04,3.32,6.06,5.01,8.98.42.73.82,1.41,1.22,2.09l.11.19.07.11.12.2c.48.83.97,1.65,1.46,2.47l.06.1c.43.72.84,1.39,1.24,2.05l.07.11c.24.41.49.82.75,1.24l.06.09c.48.77.95,1.55,1.45,2.32,1.85,2.95,3.71,5.83,5.55,8.58l1.37,2.05,1.76,2.57c1.04,1.5,2.12,3.04,3.21,4.56.44.63.86,1.21,1.28,1.78l.06.08c4.88,6.73,10.04,13.35,15.35,19.68.64.76,1.24,1.47,1.86,2.18l.15.18c.32.39.65.78.99,1.15l.12.14c.49.58,1,1.16,1.5,1.74l.08.1c.48.55.95,1.08,1.43,1.61l.06.07c.68.78,1.37,1.55,2.07,2.32l2,2.21c4.3,4.67,8.68,9.2,13.02,13.45l1.95,1.9c.09.08.18.17.27.26.59.57,1.16,1.11,1.74,1.67,1.32,1.25,2.63,2.48,3.96,3.7l.17.16c.52.48,1.04.95,1.56,1.42,7.36,6.7,15.07,13.14,22.93,19.15.83.64,1.66,1.27,2.49,1.9,7.51,5.64,15.36,11.06,23.35,16.12l2.03,1.28c.72.44,1.5.93,2.28,1.4l.48.3c.69.43,1.42.87,2.16,1.31l.1.06c2.77,1.67,5.63,3.33,8.74,5.08l.11.06c.41.23.82.46,1.24.69l.37.2c.8.44,1.57.87,2.34,1.28l.11.06c.83.46,1.66.9,2.5,1.36,1.98,1.05,3.95,2.08,5.86,3.05.73.37,1.45.73,2.18,1.1l.1.05c.7.36,1.4.71,2.12,1.05,1.36.66,2.66,1.3,3.97,1.92l.1.05,1.74.82c.94.44,1.82.85,2.72,1.26,3.77,1.73,7.45,3.34,11.01,4.82l.12.05c.52.23,1.06.44,1.6.66l.13.06c.57.24,1.15.47,1.73.7l.15.06c.94.38,1.89.76,2.83,1.12,2.21.88,4.43,1.73,6.67,2.55.94.36,1.79.66,2.66.98.95.34,1.91.69,2.87,1.02,5.12,1.79,10.26,3.47,15.31,4.98l.12.03c.6.19,1.21.37,1.82.55.33.1,1.99.58,1.99.58.67.19,1.34.38,2.02.57l.86.24c1.31.36,2.66.73,4.02,1.08l.11.03c.73.19,1.45.39,2.19.57l.4.1c.78.2,1.53.4,2.29.58l.9.22.1.02c1.06.27,2.12.52,3.18.78,2.08.48,4.23.98,6.56,1.48,1.07.23,2.13.46,3.2.68,1.15.23,2.26.45,3.37.68,1.24.24,2.47.48,3.7.7l.9.16c.6.11,1.2.22,1.8.32l4.1.69h0c.82.15,1.62.27,2.44.4l.31.05.17.03.15.02c.78.12,1.57.24,2.37.36l.11.02c1.35.2,2.7.4,4.05.58.83.11,1.66.23,2.51.33,2.7.35,5.14.63,7.41.87,1.17.13,2.32.25,3.46.36.13.02.27.02.4.04,1.03.1,2.01.19,3,.27l.1.02c.78.07,1.57.14,2.36.19.83.06,1.61.13,2.37.19,2.82.21,5.3.36,7.62.48h.19c.53.04,1.07.07,1.6.09h.23c.19.02.36.03.54.04h.19c.65.03,1.29.06,1.95.09h.1c.72.03,1.42.06,2.14.08h.11c.52.02,1.04.04,1.56.06,1.03.02,2.03.05,3.02.06h.11c.97.02,1.94.04,2.91.05,1.36.02,2.68.02,4,.02,1,0,2.01,0,3.01-.02h.23c1.28,0,2.54-.03,3.79-.06.82-.02,1.64-.03,2.45-.06h.18c1.09-.02,2.14-.06,3.19-.1h.08c1.01-.03,2.01-.08,3.01-.12l1.91-.1.96-.05.22-.02h.12c.69-.03,1.36-.07,2.05-.11l1.99-.13c.79-.05,1.59-.1,2.38-.16.84-.06,1.62-.12,2.39-.18,3.04-.23,6.18-.52,9.37-.86h.13c.5-.06,1-.12,1.5-.18l.15-.02c1.05-.12,2.11-.24,3.17-.37,1.65-.19,3.23-.4,4.81-.61,2.86-.38,5.66-.79,8.32-1.22l.09-.02c.65-.1,1.3-.2,1.95-.31l.15-.02c1.67-.28,3.35-.57,5.04-.87l.1-.02c.55-.09,1.1-.19,1.64-.3l.21-.04c1.05-.19,2.09-.39,3.14-.6l.14-.02c.76-.14,1.51-.29,2.27-.45l.12-.02c.83-.17,1.66-.34,2.48-.51l.09-.02c1.28-.27,2.55-.54,3.83-.83l.1-.02c1.14-.25,2.28-.52,3.42-.78l.63-.15c.6-.14,1.19-.28,1.79-.43,1.18-.28,2.32-.57,3.46-.86l2.45-.62,1.12-.29,1.25-1.25h3.38c.27-.08.94-.27.94-.27.7-.19,1.4-.38,2.09-.59.19-.06.38-.11.57-.16.69-.2,1.39-.4,2.08-.61l.15-.05c.66-.19,1.32-.39,1.99-.59,1-.31,1.95-.59,2.88-.9l.08-.02c5.54-1.73,11.14-3.64,16.63-5.68.82-.3,1.6-.59,2.38-.89,2.33-.87,4.62-1.77,6.84-2.66.86-.34,1.65-.65,2.45-.99l.1-.04c.76-.31,1.51-.62,2.26-.94l.08-.03c.68-.28,1.36-.57,2.05-.86,3.15-1.35,6.06-2.64,8.89-3.95,0,0,0,0,0,0,.17-.07.33-.15.5-.23l1.66-.77c1.3-.21,2.59-.44,3.88-.66,2-.36,4-.73,5.99-1.12.99-.19,1.99-.4,2.98-.6,1.82-.38,3.63-.77,5.44-1.19.16-.03.32-.06.48-.1,8.86-2.01,17.57-4.4,26.13-7.15-.26.29-.52.59-.78.89l-.46.53s0,0,0,0c-7.88,8.9-19.27,20.44-34.48,31.82-.12.09-.23.18-.35.26-.1.08-.21.16-.31.23-.5.37-.88.65-1.1.82-.04.03-.08.06-.11.08-.73.54-1.49,1.08-2.25,1.61l-153.98,39.9h0c-.06,0-.41,0-1.03,0h-.73c-.13,0-.27,0-.4,0-.22,0-.45,0-.7,0-.37,0-.78,0-1.22-.02-.24,0-.5,0-.77,0-.45,0-.9,0-1.36-.02-10.67-.15-21.23-.75-31.66-1.8-.44-.04-.89-.09-1.33-.13-.7-.06-1.4-.14-2.11-.21-.73-.08-1.47-.15-2.21-.24-1.47-.16-2.96-.33-4.43-.52-144.14-17.98-263.42-115.94-312.06-248.06l11.61-.31Z"/>
      <path class="cls-9" d="M360.16,723.02h9.87c.38.97.76,1.93,1.15,2.89.21.54.43,1.07.65,1.61.95,2.35,1.93,4.67,2.93,7,.27.63.54,1.26.82,1.89.24.56.48,1.11.73,1.66,0,.02,0,.03.02.05.07.19.16.37.24.56.23.54.48,1.07.73,1.61.36.82.73,1.64,1.11,2.45,2.63,5.72,5.41,11.34,8.32,16.89.27.52.54,1.03.82,1.53.31.61.64,1.2.96,1.8,1.68,3.12,3.41,6.23,5.18,9.29.42.73.85,1.47,1.28,2.2.07.13.15.27.23.4.53.92,1.08,1.83,1.63,2.75.43.72.86,1.44,1.3,2.15.29.48.58.96.88,1.44.5.82,1.01,1.64,1.53,2.45,1.87,2.97,3.77,5.92,5.72,8.83.48.71.95,1.41,1.43,2.12.6.87,1.19,1.74,1.79,2.62,1.1,1.59,2.21,3.17,3.33,4.74.46.65.93,1.3,1.4,1.95,5.05,6.98,10.35,13.77,15.88,20.35.65.78,1.3,1.54,1.96,2.31.4.48.8.94,1.21,1.41.56.65,1.12,1.3,1.69,1.95.49.57.99,1.13,1.49,1.7.73.84,1.48,1.67,2.23,2.49.67.74,1.35,1.49,2.02,2.23,4.38,4.76,8.87,9.41,13.48,13.94.7.69,1.4,1.37,2.11,2.06.05.04.09.08.14.13.62.6,1.24,1.19,1.86,1.78,1.35,1.28,2.71,2.56,4.09,3.83.6.55,1.19,1.1,1.79,1.64,7.61,6.92,15.51,13.52,23.7,19.79.86.66,1.72,1.32,2.59,1.97,7.81,5.87,15.86,11.42,24.14,16.66.68.43,1.36.86,2.04,1.28.82.51,1.64,1.02,2.46,1.52.12.08.25.15.38.23.8.49,1.6.98,2.41,1.45,2.99,1.8,6.02,3.55,9.07,5.26.59.34,1.18.66,1.78.99.84.47,1.67.93,2.52,1.38.87.48,1.74.94,2.62,1.41,2,1.07,4.01,2.12,6.04,3.15.76.39,1.52.77,2.28,1.15.78.4,1.56.78,2.34,1.16,1.35.66,2.7,1.32,4.07,1.97.65.31,1.29.61,1.94.91.93.44,1.87.87,2.81,1.3,3.75,1.72,7.53,3.38,11.36,4.97.61.26,1.23.52,1.85.77.62.26,1.24.51,1.87.76,1.04.42,2.08.84,3.12,1.24,2.27.9,4.55,1.77,6.85,2.62.92.35,1.83.68,2.75,1.01.99.36,1.98.71,2.97,1.06,5.22,1.83,10.5,3.55,15.83,5.15.68.21,1.36.41,2.05.61.65.19,1.3.38,1.95.57.99.29,1.99.57,2.99.85,1.42.4,2.84.78,4.27,1.15.9.24,1.81.48,2.71.71,1.11.29,2.23.57,3.35.84,1.11.28,2.24.55,3.36.82,2.25.53,4.51,1.04,6.79,1.53,1.11.24,2.24.48,3.36.71,1.14.23,2.28.46,3.42.69,1.33.27,2.68.52,4.02.77.9.16,1.8.33,2.7.48h0s.07.02.11.02h0c1.11.19,2.2.39,3.31.57.08.02.16.03.24.04,1.03.18,2.07.35,3.11.5.16.03.32.06.48.08.86.14,1.73.27,2.59.39,1.4.21,2.79.41,4.19.61.88.12,1.75.23,2.63.35,2.54.32,5.1.63,7.66.9,1.32.15,2.65.27,3.98.4,1.05.1,2.1.2,3.15.29.86.08,1.72.15,2.58.22.81.06,1.62.13,2.43.19,2.62.19,5.25.36,7.88.49.64.04,1.28.07,1.92.1.29.02.57.03.86.04.69.03,1.39.06,2.09.09.76.03,1.51.06,2.27.08.57.02,1.15.04,1.73.06,1.06.03,2.12.06,3.17.07,1.03.02,2.08.04,3.11.05,1.36.02,2.73.02,4.09.02,1.11,0,2.23,0,3.33-.02,1.32,0,2.62-.03,3.93-.06.9-.02,1.82-.04,2.72-.06,1.11-.02,2.21-.06,3.32-.1,1.07-.03,2.14-.08,3.2-.13.91-.04,1.82-.08,2.74-.13.1,0,.19,0,.29-.02.03,0,.07,0,.11,0,.78-.04,1.55-.08,2.33-.13.63-.04,1.27-.08,1.9-.12.87-.06,1.75-.11,2.62-.18.82-.06,1.64-.12,2.45-.19,3.24-.25,6.46-.55,9.67-.89.61-.06,1.21-.13,1.82-.2,1.11-.12,2.23-.25,3.34-.39,1.65-.19,3.29-.4,4.93-.62,2.89-.39,5.77-.81,8.64-1.27.74-.11,1.48-.23,2.22-.36,1.76-.29,3.51-.59,5.27-.91.65-.11,1.29-.23,1.94-.36,1.11-.2,2.2-.41,3.31-.63.87-.16,1.74-.34,2.61-.52.87-.18,1.74-.36,2.61-.54,1.36-.28,2.7-.57,4.05-.88,1.25-.27,2.5-.57,3.75-.86.79-.19,1.59-.37,2.38-.57,1.2-.29,2.4-.59,3.59-.89.57-.15,1.15-.29,1.71-.44.25-.06.51-.13.76-.19.59-.15,1.18-.31,1.77-.46,0,0,.02,0,.03,0,.85-.23,1.7-.45,2.55-.69,0,0,.02,0,.02,0,.84-.23,1.68-.46,2.52-.7.82-.23,1.63-.45,2.45-.69.05-.02.1-.03.14-.04.83-.23,1.66-.48,2.47-.73.72-.21,1.43-.42,2.14-.64,1.02-.31,2.03-.61,3.04-.94,5.81-1.82,11.55-3.78,17.22-5.88.82-.3,1.63-.61,2.45-.91,2.38-.9,4.75-1.82,7.11-2.77.87-.35,1.74-.69,2.6-1.06.81-.33,1.61-.66,2.41-1,.72-.3,1.44-.61,2.16-.91,3.27-1.4,6.52-2.83,9.74-4.33.65-.3,1.28-.6,1.93-.9,3.27-1.53,6.52-3.12,9.73-4.75,0,0,0,0,0,0,1.39-.7,2.77-1.41,4.14-2.13,1.16-.61,2.32-1.22,3.47-1.84,1.15-.61,2.28-1.24,3.42-1.86.11-.06.23-.13.35-.19,1.05-.58,2.1-1.17,3.15-1.76.82-.46,1.62-.92,2.43-1.39s1.61-.94,2.41-1.4c2.8-1.64,5.59-3.32,8.34-5.05t.02,0c.69-.43,1.39-.86,2.08-1.29-.26.29-.52.59-.78.89-.15.18-.31.36-.46.53,0,0,0,0,0,0-7.88,8.9-19.27,20.44-34.48,31.82-.12.09-.23.18-.35.26-.1.08-.21.16-.31.23-.5.37-.88.65-1.1.82-.04.03-.08.06-.11.08-.73.54-1.49,1.08-2.25,1.61-11.1,7.83-24.91,15.49-42.05,21.62-26.14,8.57-64.71,18.05-111.93,18.28h0c-.06,0-.41,0-1.03,0-.31,0-.69,0-1.13,0-.22,0-.45,0-.7,0-.37,0-.78,0-1.22-.02-.24,0-.5,0-.77,0-.43,0-.88-.02-1.36-.02-6.9-.17-18.77-.61-31.66-1.8-.44-.04-.89-.09-1.33-.13-.7-.06-1.4-.14-2.11-.21-.73-.08-1.47-.15-2.21-.24-2.42-.29-4.42-.52-4.43-.52-2.48-.3-134.44-103.37-312.17-248.36,3.91,0,7.82,0,11.72,0Z"/>
      <path class="cls-9" d="M756.75,210.5c-7.09,5.39-14.05,10.92-20.67,16.38-.61.5-1.21,1-1.84,1.53-8.48-.6-17.04-.9-25.68-.9-151.26,0-280.93,92.43-335.61,223.89h-21.78c55.78-142.86,194.76-244.08,357.38-244.08,17.21,0,33.54,1.29,48.19,3.17Z"/>
      <path class="cls-16" d="M902.4,898.21c-.69.44-1.39.87-2.09,1.3-4.34,2.71-8.73,5.32-13.18,7.84-1.05.59-2.1,1.18-3.15,1.76-.12.06-.23.13-.35.19-1.14.62-2.28,1.24-3.42,1.86-1.15.62-2.31,1.24-3.47,1.84-1.37.72-2.75,1.43-4.14,2.13,0,0,0,0,0,0-3.21,1.62-6.46,3.21-9.73,4.75-.65.3-1.28.6-1.93.9-3.22,1.49-6.47,2.93-9.74,4.33-.72.31-1.44.61-2.16.91-.8.34-1.6.67-2.41,1-.86.36-1.73.71-2.6,1.06-2.36.95-4.72,1.87-7.11,2.77-.82.31-1.63.61-2.45.91-5.68,2.1-11.42,4.06-17.22,5.88-1.01.32-2.02.63-3.04.94-.71.22-1.42.43-2.14.64-.82.25-1.64.49-2.47.73-.04,0-.09.02-.14.04-.82.23-1.63.47-2.45.69-.84.24-1.68.47-2.52.7,0,0-.02,0-.02,0-.85.23-1.7.46-2.55.69,0,0-.02,0-.03,0l-1.77.46c-.25.06-.51.13-.76.19-.57.15-1.14.29-1.71.44-1.19.3-2.39.6-3.59.89-.79.19-1.59.38-2.38.57-1.25.29-2.5.58-3.75.86-1.35.3-2.7.6-4.05.88-.86.19-1.74.36-2.61.54-.86.18-1.74.35-2.61.52-1.11.22-2.2.43-3.31.63-.65.12-1.29.24-1.94.36-1.76.32-3.51.62-5.27.91-.74.12-1.48.24-2.22.36-2.87.46-5.75.88-8.64,1.27-1.64.22-3.29.43-4.93.62-1.11.14-2.23.27-3.34.39-.61.07-1.21.14-1.82.2-3.21.34-6.44.64-9.67.89-.82.06-1.64.13-2.45.19-.87.06-1.75.12-2.62.18-.63.04-1.27.08-1.9.12-.78.05-1.56.09-2.33.13-.03,0-.07,0-.11,0-.1,0-.19,0-.29.02-.91.05-1.82.09-2.74.13-1.06.05-2.12.1-3.2.13-1.11.04-2.21.08-3.32.1-.9.02-1.82.05-2.72.06-1.31.02-2.62.05-3.93.06-1.11,0-2.22.02-3.33.02-1.36,0-2.73,0-4.09-.02-1.03,0-2.07-.02-3.11-.05-1.06-.02-2.12-.04-3.17-.07-.57-.02-1.15-.03-1.73-.06-.76-.02-1.51-.05-2.27-.08-.7-.02-1.4-.06-2.09-.09-.28,0-.57-.02-.86-.04-.64-.02-1.28-.06-1.92-.1-2.63-.13-5.26-.3-7.88-.49-.81-.06-1.62-.12-2.43-.19-.86-.06-1.73-.14-2.58-.22-1.05-.09-2.1-.19-3.15-.29-1.33-.13-2.66-.26-3.98-.4-2.56-.27-5.12-.58-7.66-.9-.88-.11-1.75-.23-2.63-.35-1.4-.19-2.79-.4-4.19-.61-.86-.12-1.73-.25-2.59-.39-.16-.02-.32-.05-.48-.08-1.03-.15-2.07-.32-3.11-.5-.08,0-.16-.02-.24-.04-1.11-.18-2.2-.37-3.31-.57h0s-.06,0-.08-.02h-.04c-.9-.16-1.81-.33-2.7-.49-1.34-.25-2.69-.5-4.02-.77-1.14-.23-2.28-.45-3.42-.69-1.12-.23-2.24-.47-3.36-.71-2.28-.49-4.54-1-6.79-1.53-1.12-.27-2.24-.53-3.36-.82-1.12-.27-2.24-.55-3.35-.84-.9-.23-1.82-.47-2.71-.71-1.43-.37-2.85-.76-4.27-1.15-1-.28-1.99-.56-2.99-.85-.65-.19-1.3-.38-1.95-.57-.69-.2-1.37-.4-2.05-.61-5.34-1.6-10.61-3.32-15.83-5.15-.99-.35-1.99-.7-2.97-1.06-.92-.33-1.83-.66-2.75-1.01-2.29-.85-4.58-1.72-6.85-2.62-1.04-.4-2.08-.82-3.12-1.24-.62-.25-1.24-.5-1.87-.76-.62-.25-1.24-.51-1.85-.77-3.83-1.59-7.61-3.25-11.36-4.97-.94-.43-1.88-.86-2.81-1.3-.65-.3-1.29-.61-1.94-.91-1.36-.65-2.72-1.31-4.07-1.97-.78-.38-1.57-.77-2.34-1.16-.76-.38-1.52-.76-2.28-1.15-2.03-1.03-4.04-2.08-6.04-3.15-.88-.47-1.75-.94-2.62-1.41-.85-.45-1.68-.91-2.52-1.38-.6-.33-1.19-.65-1.78-.99-3.05-1.71-6.08-3.46-9.07-5.26-.81-.48-1.61-.96-2.41-1.45-.13-.08-.26-.15-.38-.23-.82-.5-1.65-1.01-2.46-1.52-.68-.43-1.36-.86-2.04-1.28-8.28-5.24-16.33-10.8-24.14-16.66-.87-.65-1.73-1.31-2.59-1.97-8.19-6.27-16.09-12.87-23.7-19.79-.6-.54-1.19-1.09-1.79-1.64-1.38-1.27-2.75-2.54-4.09-3.83-.62-.59-1.24-1.18-1.86-1.78-.05-.05-.09-.09-.14-.13-.7-.69-1.4-1.37-2.11-2.06-4.62-4.52-9.11-9.17-13.48-13.94-.67-.74-1.35-1.49-2.02-2.23-.75-.82-1.49-1.66-2.23-2.49-.5-.57-1-1.13-1.49-1.7-.57-.65-1.13-1.29-1.69-1.95-.41-.47-.82-.94-1.21-1.41-.66-.77-1.31-1.53-1.96-2.31-5.53-6.59-10.83-13.38-15.88-20.35-.48-.65-.94-1.29-1.4-1.95-1.12-1.57-2.24-3.15-3.33-4.74-.6-.87-1.2-1.74-1.79-2.62-.48-.71-.95-1.41-1.43-2.12-1.95-2.91-3.85-5.86-5.72-8.83-.52-.82-1.03-1.64-1.53-2.45-.3-.48-.59-.95-.88-1.44-.44-.71-.87-1.43-1.3-2.15-.55-.91-1.1-1.82-1.63-2.75-.08-.13-.16-.27-.23-.4-.44-.73-.86-1.47-1.28-2.2-1.78-3.07-3.5-6.17-5.18-9.29-.32-.6-.65-1.19-.96-1.8-.27-.51-.55-1.02-.82-1.53-2.91-5.55-5.69-11.17-8.32-16.89-.38-.82-.75-1.63-1.11-2.45-.25-.53-.49-1.07-.73-1.61-.08-.19-.17-.37-.24-.56-.02-.02-.02-.03-.02-.05-.25-.56-.49-1.11-.73-1.66-.28-.63-.56-1.26-.82-1.89-1-2.33-1.98-4.65-2.93-7-.22-.53-.44-1.07-.65-1.61-.39-.96-.77-1.92-1.15-2.89-1.57-4-3.06-8.04-4.48-12.11-12.75-36.41-19.86-75.47-20.29-116.13-.02-1.1-.02-2.2-.02-3.29v-.65c0-49.41,9.86-96.5,27.73-139.44,54.68-131.46,184.35-223.89,335.61-223.89,8.63,0,17.2.3,25.68.9-25.18,20.91-67.39,58.92-106.78,108.11-80.82,55.39-134.59,147.38-137.41,252.07,0,.22-.02.44-.02.65-1.23.3-2.47.54-3.73.71,1.26.18,2.49.42,3.7.73,0,.21-.02.43-.02.64-.04,1.99-.06,3.96-.06,5.96,0,133.35,82.62,247.41,199.46,293.77,33.71,13.38,70.26,21.12,108.5,22.07,2.4.06,4.81.09,7.23.1.26,0,.51,0,.76,0,0,0,.73,0,1.72,0,1.18,0,2.36-.02,3.53-.04.4,0,.76,0,1.05-.02.4,0,.82-.02,1.22-.03,13.58-.31,26.94-1.48,40.04-3.46.19-.03.37-.06.54-.08.18-.02.35-.05.52-.08.57-.08.86-.13.86-.13.72-.11,1.43-.23,2.14-.35,1.3-.21,2.59-.44,3.88-.66,2-.36,4-.73,5.99-1.12.99-.19,1.99-.4,2.98-.6,1.82-.38,3.63-.77,5.44-1.19.16-.03.32-.06.48-.1,8.86-2.01,17.57-4.4,26.13-7.15Z"/>
      <path class="cls-21" d="M902.4,898.21l-5.13,2.24-23.07,10.07-72.28,31.56s-.02,0-.03,0l-73.69,11.57s-.07,0-.11,0l-57.99-3.51-25.12-1.52h-.04s-21.67-16.99-21.67-16.99l-225.2-176.48-21.74-17.04s-.02-.03-.02-.05l-6.28-15.05c-1.57-4-3.06-8.04-4.48-12.11-12.75-36.41-19.86-75.47-20.29-116.13-.02-1.1-.02-2.2-.02-3.29v-.65c0-49.41,9.86-96.5,27.73-139.44,54.68-131.46,184.35-223.89,335.61-223.89,8.63,0,17.2.3,25.68.9-25.18,20.91-67.39,58.92-106.78,108.11-13.77,17.19-26.82,36.12-26.82,36.12-17.17,24.6-30.35,46.56-39.93,63.66-.03.05-.06.1-.09.15-.24.4-.48.81-.72,1.2-25.85,43.42-37.71,83.72-42.69,117.74-.4,2.75-.76,5.47-1.08,8.19-3.28,12.26-13.69,21.93-26.09,25.01-2.73.68-5.55,1.04-8.42,1.04,1.59,0,3.15.11,4.67.32,1.26.18,2.49.42,3.7.73,12.62,3.25,22.41,13.67,24.88,26.72,8.78,126.97,99.59,208.87,178.48,253.58,2.02,1.15,4.03,2.26,6.03,3.36,1,.55,2,1.09,3,1.62,3.98,2.15,7.93,4.19,11.81,6.14.15.08.31.15.46.23.04.02.07.04.1.06.78.4,1.57.78,2.34,1.16.22.1.44.22.65.32,1.03.51,2.07,1.02,3.08,1.51,1.11.53,2.22,1.06,3.32,1.57,1.1.52,2.2,1.03,3.29,1.53,1.45.67,2.9,1.33,4.33,1.97.72.32,1.43.64,2.14.95.52.23,1.05.47,1.57.69.9.39,1.78.78,2.66,1.15.69.3,1.38.6,2.07.89,3.46,1.47,6.85,2.85,10.16,4.14.65.26,1.31.51,1.96.77,1.31.5,2.59.99,3.87,1.46.64.24,1.27.48,1.9.7,3.88,1.43,7.62,2.73,11.18,3.89.48.15.95.31,1.43.46.57.19,1.14.37,1.7.54.55.18,1.1.35,1.64.52,1.11.34,2.2.67,3.28.99.53.16,1.06.31,1.58.46.58.16,1.15.32,1.71.48.57.16,1.13.31,1.68.46.4.11.78.22,1.17.31,1.02.27,2.01.52,2.98.77.44.1.87.22,1.3.31,1.83.44,3.58.83,5.22,1.17.29.06.58.12.87.18.03,0,.06,0,.1.02.25.05.5.1.74.14.09.02.18.03.27.05.48.1.95.18,1.41.26.39.06.76.13,1.13.19l.15.02c.69.11,1.36.21,2,.3,1.03.14,2.01.25,2.92.33.57.05,1.12.09,1.64.11.31.02.62.03.91.04.26,0,.51,0,.76,0,0,0,.73,0,1.72,0,1.18,0,2.36-.02,3.53-.04.4,0,.76,0,1.05-.02.4,0,.82-.02,1.22-.03.66-.02,1.32-.04,1.98-.06,17.12-.58,32.75-2.64,38.06-3.4.19-.03.37-.06.54-.08.18-.02.35-.05.52-.08.57-.08.86-.13.86-.13.72-.11,1.43-.23,2.14-.35,1.3-.21,2.59-.44,3.88-.66,2-.36,4-.73,5.99-1.12.99-.19,1.99-.4,2.98-.6,1.82-.38,3.63-.77,5.44-1.19.16-.03.32-.06.48-.1,8.86-2.01,17.57-4.4,26.13-7.15Z"/>
      <path class="cls-19" d="M325.04,590.85c0,46.45,8.26,90.98,23.39,132.18h-151.43c-19.93,0-36.08-16.16-36.08-36.08v-199.45c0-19.93,16.15-36.08,36.08-36.08h154.17c-16.87,43.22-26.14,90.25-26.14,139.44Z"/>
      <path class="cls-13" d="M360.16,723.02h-11.72q.02.05.06.15-.04-.1-.06-.15h-4.26l-5.21-.36c-12.22-42.16-17.35-87.15-14.11-133.49.06-.96.14-1.92.22-2.88v-.05c3.71-47.98,16.12-93.26,35.57-134.35l11.78.82.26.02,9.68.68c-20.31,40.57-33.29,85.63-37.1,133.56,0,0,0,.02,0,.02,0,0,0,0,0,0v.02c-.1,1.19-.19,2.37-.27,3.57-3.22,46.1,2.29,90.79,15.17,132.45Z"/>
      <path class="cls-21" d="M395.14,451.41v271.62h-25.12c-16.01-40.97-24.8-85.55-24.8-132.18,0-49.41,9.86-96.5,27.73-139.44h22.19Z"/>
      <path class="cls-9" d="M313.98,627.15c-41.97-9.38-83.94-18.75-125.9-28.13v-20.19c42.06-7.67,84.12-15.34,126.18-23.02-1.69,9.93-3,21.76-3.09,35.1-.09,13.81,1.15,26.03,2.81,36.23Z"/>
      <path class="cls-12" d="M902.4,898.85c-5.01,3.17-10.1,6.22-15.28,9.14-1.05.59-2.1,1.18-3.15,1.76-.12.06-.23.13-.35.19-1.14.62-2.28,1.24-3.42,1.86-1.15.62-2.31,1.24-3.47,1.84-1.37.72-2.75,1.43-4.14,2.13,0,0,0,0,0,0-3.21,1.62-6.46,3.21-9.73,4.75-.65.3-1.28.6-1.93.9-3.22,1.49-6.47,2.93-9.74,4.33-.72.31-1.44.61-2.16.91-.8.34-1.6.67-2.41,1-.86.36-1.73.71-2.6,1.06-2.36.95-4.72,1.87-7.11,2.77-.82.31-1.63.61-2.45.91-5.68,2.1-11.42,4.06-17.22,5.88-1.01.32-2.02.63-3.04.94-.71.22-1.42.43-2.14.64-.82.25-1.64.49-2.47.73-.04,0-.09.02-.14.04-.82.23-1.63.47-2.45.69-.84.24-1.68.47-2.52.7,0,0-.02,0-.02,0-.85.23-1.7.46-2.55.69,0,0-.02,0-.03,0l-1.77.46c-.25.06-.51.13-.76.19-.57.15-1.14.29-1.71.44-1.19.3-2.39.6-3.59.89-.79.19-1.59.38-2.38.57-1.25.29-2.5.58-3.75.86-1.35.3-2.7.6-4.05.88-.86.19-1.74.36-2.61.54-.86.18-1.74.35-2.61.52-1.11.22-2.2.43-3.31.63-.65.12-1.29.24-1.94.36-1.76.32-3.51.62-5.27.91-.74.12-1.48.24-2.22.36-2.87.46-5.75.88-8.64,1.27-1.64.22-3.29.43-4.93.62-1.11.14-2.23.27-3.34.39-.61.07-1.21.14-1.82.2-3.21.34-6.44.64-9.67.89-.82.06-1.64.13-2.45.19-.87.06-1.75.12-2.62.18-.63.04-1.27.08-1.9.12-.78.05-1.56.09-2.33.13-.03,0-.07,0-.11,0-.1,0-.19,0-.29.02-.91.05-1.82.09-2.74.13-1.06.05-2.12.1-3.2.13-1.11.04-2.21.08-3.32.11-.9.02-1.82.05-2.72.06-1.31.02-2.62.05-3.93.06-1.11,0-2.22.02-3.33.02-1.36,0-2.73,0-4.09-.02-1.03,0-2.07-.02-3.11-.05-1.06-.02-2.12-.04-3.17-.07-.57-.02-1.15-.03-1.73-.06-.76-.02-1.51-.05-2.27-.08-.7-.02-1.4-.06-2.09-.09-.28,0-.57-.02-.86-.04-.64-.02-1.28-.06-1.92-.1-2.63-.13-5.26-.3-7.88-.49-.81-.06-1.62-.12-2.43-.19-.86-.06-1.73-.14-2.58-.22-1.05-.09-2.1-.19-3.15-.29-1.33-.13-2.66-.26-3.98-.4-2.56-.27-5.12-.58-7.66-.9-.88-.11-1.75-.23-2.63-.35-1.4-.19-2.79-.4-4.19-.61-.86-.12-1.73-.25-2.59-.39-.16-.02-.32-.05-.48-.08-1.03-.15-2.07-.32-3.11-.5-.08,0-.16-.02-.24-.04-1.11-.18-2.2-.37-3.31-.57h0s-.06,0-.08-.02h-.04c-.9-.16-1.81-.33-2.7-.49-1.34-.25-2.69-.5-4.02-.77-1.14-.23-2.28-.45-3.42-.69-1.12-.23-2.24-.47-3.36-.71-2.28-.49-4.54-1-6.79-1.53-1.12-.27-2.24-.53-3.36-.82-1.12-.27-2.24-.55-3.35-.84-.9-.23-1.82-.47-2.71-.71-1.43-.37-2.85-.76-4.27-1.15-1-.28-1.99-.56-2.99-.85-.65-.19-1.3-.38-1.95-.57-.69-.2-1.37-.4-2.05-.61-5.34-1.6-10.61-3.32-15.83-5.15-.99-.35-1.99-.7-2.97-1.06-.92-.33-1.83-.66-2.75-1.01-2.29-.85-4.58-1.72-6.85-2.62-1.04-.4-2.08-.82-3.12-1.24-.62-.25-1.24-.5-1.87-.76-.62-.25-1.24-.51-1.85-.77-3.83-1.59-7.61-3.25-11.36-4.97-.94-.43-1.88-.86-2.81-1.3-.65-.3-1.29-.61-1.94-.91-1.36-.65-2.72-1.31-4.07-1.97-.78-.38-1.57-.77-2.34-1.16-.76-.38-1.52-.76-2.28-1.15-2.03-1.03-4.04-2.08-6.04-3.15-.88-.47-1.75-.94-2.62-1.41-.85-.45-1.68-.91-2.52-1.38-.6-.33-1.19-.65-1.78-.99-3.05-1.71-6.08-3.46-9.07-5.26-.81-.48-1.61-.96-2.41-1.45-.13-.08-.26-.15-.38-.23-.82-.5-1.65-1.01-2.46-1.52-.68-.43-1.36-.86-2.04-1.28-8.28-5.24-16.33-10.8-24.14-16.66-.87-.65-1.73-1.31-2.59-1.97-8.19-6.27-16.09-12.87-23.7-19.79-.6-.54-1.19-1.09-1.79-1.64-1.38-1.27-2.75-2.54-4.09-3.83-.62-.59-1.24-1.18-1.86-1.78-.05-.05-.09-.09-.14-.13-.7-.69-1.4-1.37-2.11-2.06-4.62-4.52-9.11-9.17-13.48-13.94-.67-.74-1.35-1.49-2.02-2.23-.75-.82-1.49-1.66-2.23-2.49-.5-.57-1-1.13-1.49-1.7-.57-.65-1.13-1.29-1.69-1.95-.41-.47-.82-.94-1.21-1.41-.66-.77-1.31-1.53-1.96-2.31-5.53-6.59-10.83-13.38-15.88-20.35-.48-.65-.94-1.29-1.4-1.95-1.12-1.57-2.24-3.15-3.33-4.74-.6-.87-1.2-1.74-1.79-2.62-.48-.71-.95-1.41-1.43-2.12-1.95-2.91-3.85-5.86-5.72-8.83-.52-.82-1.03-1.64-1.53-2.45-.3-.48-.59-.95-.88-1.44-.44-.71-.87-1.43-1.3-2.15-.55-.91-1.1-1.82-1.63-2.75-.08-.13-.16-.27-.23-.4-.44-.73-.86-1.47-1.28-2.2-1.78-3.07-3.5-6.17-5.18-9.29-.32-.6-.65-1.19-.96-1.8-.27-.51-.55-1.02-.82-1.53-2.91-5.55-5.69-11.17-8.32-16.89-.38-.82-.75-1.63-1.11-2.45-.25-.53-.49-1.07-.73-1.61-.08-.19-.17-.37-.24-.56-.02-.02-.02-.03-.02-.05-.25-.56-.49-1.11-.73-1.66-.28-.63-.56-1.26-.82-1.89-1-2.33-1.98-4.65-2.93-7-.22-.53-.44-1.07-.65-1.61-.39-.96-.77-1.92-1.15-2.89-1.57-4-3.06-8.04-4.48-12.11-12.81-36.6-19.93-75.88-20.29-116.78-.02-1.1-.02-2.2-.02-3.29v-.3c.04-49.3,9.89-96.29,27.73-139.14,57.26-137.61,206.54-220.01,335.61-223.89,10.61-.32,19.47-.06,25.68.25-22.99,20.14-69.43,62.36-106.78,108.76-1.84,2.28-4.15,5.18-6.85,8.66,0,0-9.55,12.34-19.98,27.45-16.61,24.09-35.54,55.71-37.83,59.53-.71,1.16-1.41,2.33-2.1,3.48-.03.05-.06.1-.09.15-.24.4-.48.8-.72,1.2-25.79,43.63-37.68,84.1-42.68,118.35,0,.02,0,.02,0,.04,0,.02,0,.06,0,.08-.34,2.28-.65,4.57-.92,6.85-.06.42-.1.84-.15,1.26-.03.13-.07.27-.11.4-3.39,12.08-13.71,21.57-25.99,24.63-1.23.3-2.47.54-3.73.71-1.54.22-3.1.32-4.67.32,2.88,0,5.68.36,8.36,1.05,12.63,3.25,22.43,13.67,24.9,26.73,8.78,126.97,99.59,208.87,178.48,253.58,2.02,1.15,4.03,2.26,6.03,3.36,1,.55,2,1.09,3,1.62,3.98,2.15,7.93,4.19,11.81,6.14.09.04.17.09.25.13.07.03.15.06.21.1.04.02.07.04.1.06.78.4,1.57.78,2.34,1.16.22.1.44.22.65.32,1.03.51,2.07,1.02,3.08,1.51,1.11.53,2.22,1.06,3.32,1.57,1.1.52,2.2,1.03,3.29,1.53,1.45.67,2.9,1.33,4.33,1.97.72.32,1.43.64,2.14.95.52.23,1.05.47,1.57.69.9.39,1.78.78,2.66,1.15.69.3,1.38.6,2.07.89,3.46,1.47,6.85,2.85,10.16,4.14.65.26,1.31.51,1.96.77,1.31.5,2.59.99,3.87,1.46.64.24,1.27.48,1.9.7,3.88,1.43,7.62,2.73,11.18,3.89.48.15.95.31,1.43.46.57.19,1.14.37,1.7.54.55.18,1.1.35,1.64.52,1.11.34,2.2.67,3.28.99.53.16,1.06.31,1.58.46.58.16,1.15.32,1.71.48.57.16,1.13.31,1.68.46.4.11.78.22,1.17.31,1.02.27,2.01.52,2.98.77.44.1.87.22,1.3.31,1.83.44,3.58.83,5.22,1.17.29.06.58.11.86.17t0,0s.06,0,.1.02c.25.05.5.1.74.14.09.02.18.03.27.05.48.1.95.18,1.41.26.39.06.76.13,1.13.19l.15.02c.08.02.17.02.25.04.6.1,1.19.18,1.75.26,1.03.14,2.01.25,2.92.33.57.05,1.12.09,1.64.11.31.02.62.03.91.04.26,0,.51,0,.76,0,0,0,.73,0,1.72,0,1.18,0,2.36-.02,3.53-.04.4,0,.76,0,1.05-.02.4,0,.82-.02,1.22-.03.66-.02,1.32-.04,1.98-.06,17.12-.58,32.75-2.64,38.06-3.4.19-.03.37-.06.54-.08.18-.02.35-.05.52-.08.57-.08.86-.13.86-.13.72-.11,1.43-.23,2.14-.35,1.3-.21,2.59-.44,3.88-.66,2-.36,4-.73,5.99-1.12.99-.19,1.99-.4,2.98-.6,1.82-.38,3.63-.77,5.44-1.19.16-.03.32-.06.48-.1,7.1-1.61,14.1-3.46,21-5.55,1.02-.3,2.03-.61,3.04-.94.69-.21,1.4-.43,2.09-.65Z"/>
      <path class="cls-9" d="M470.43,598.86c-43.35,8.87-86.7,17.74-130.05,26.61.24-23.19.48-46.39.72-69.58,43.11,7.59,86.22,15.19,129.33,22.78-1.2.03-6.3.27-10.27,4.32-2.29,2.34-3.2,4.92-3.58,6.32.26,1.08,1.22,4.42,4.42,6.95,4.01,3.17,8.54,2.71,9.43,2.6Z"/>
      <path class="cls-10" d="M549.35,589.63c-18.7,0-33.86,15.33-33.86,34.25,0-2.21-.21-4.38-.61-6.48-.45-6.48-.69-13.09-.69-19.81-.02-11.67.65-23,1.95-34.02.7-2.62,1.08-5.37,1.08-8.19,0,18.91,13.44,34.24,32.13,34.24Z"/>
      <path class="cls-13" d="M348.43,723.02q.02.05.06.15-.04-.1-.06-.15h11.72-11.72Z"/>
      <path class="cls-9" d="M372.95,451.4c-.18.44-.36.87-.53,1.31-.02.06-.05.1-.06.16-.32.77-.64,1.54-.95,2.32-.14.35-.27.7-.41,1.05-.13.31-.25.62-.37.94-.22.56-.44,1.11-.65,1.66-.22.56-.44,1.11-.65,1.67-.26.65-.5,1.31-.75,1.96s-.49,1.31-.73,1.96c-.24.66-.48,1.32-.73,1.98-.24.65-.48,1.32-.72,1.98s-.48,1.32-.7,1.99c-.23.66-.47,1.32-.69,1.99-.06.16-.11.33-.17.49-.3.86-.59,1.71-.87,2.57-.1.31-.2.62-.31.94-.44,1.33-.88,2.67-1.31,4.01-.35,1.08-.69,2.17-1.03,3.26-.28.93-.57,1.87-.85,2.8-.31,1-.6,2-.89,3-.3,1.03-.6,2.07-.89,3.1-.38,1.36-.76,2.74-1.12,4.11-.37,1.36-.73,2.73-1.07,4.09,0,0,0,.02,0,.03h0c-.35,1.38-.69,2.75-1.03,4.12-.33,1.38-.65,2.75-.98,4.13-.28,1.23-.56,2.46-.83,3.7-.04.2-.09.4-.14.61-.28,1.35-.57,2.7-.85,4.05-.15.69-.28,1.38-.42,2.07-.14.71-.28,1.43-.42,2.14-.27,1.4-.54,2.81-.78,4.22-.13.7-.26,1.4-.38,2.12-.12.71-.24,1.42-.36,2.12-.23,1.32-.44,2.64-.65,3.96-.03.19-.06.39-.09.57-.1.66-.2,1.32-.31,1.99-.1.66-.19,1.32-.29,1.99-.2,1.43-.4,2.86-.59,4.29-.19,1.44-.37,2.87-.54,4.3-.18,1.45-.34,2.88-.49,4.32-.15,1.45-.31,2.89-.44,4.34-.14,1.45-.27,2.9-.39,4.35-.12,1.45-.23,2.91-.34,4.37-.06.85-.12,1.7-.18,2.54-.03.61-.07,1.22-.1,1.83-.05.71-.08,1.42-.12,2.14-.04.71-.07,1.42-.11,2.14l-.02.46c0,.19-.02.38-.02.57-.07,1.49-.12,2.98-.17,4.47-.04,1.09-.07,2.18-.09,3.26h0c-.03,1.54-.07,3.07-.09,4.6,0,.07,0,.15,0,.22v.05s0,.05,0,.07v.1c-.02,1.28-.02,2.55-.02,3.84s0,2.62.02,3.94c0,.7.02,1.4.03,2.1,0,0,0,.02,0,.03,0,.15,0,.31,0,.46v.06c0,.48.02.95.02,1.43v.15c0,.06,0,.12,0,.19v.08c0,.1,0,.19,0,.28.03,1.47.09,2.94.14,4.41,0,.13.01.26.02.39,0,.15,0,.31.02.46,0,.15,0,.31.02.46v.03c0,.28.02.57.03.86,0,.23.02.48.03.72,0,.09,0,.18.02.27.02.61.05,1.2.08,1.81,0,.24.02.49.04.73v.13s0,.08,0,.12c0,.12,0,.24.02.37v.05c.05,1.02.1,2.03.17,3.04,0,.13.02.26.02.39,0,.27.03.54.05.81,0,.18.02.36.04.53.02.39.05.78.07,1.16.02.39.06.78.08,1.16.02.17.02.34.04.51.09,1.25.19,2.5.29,3.75.04.41.07.82.11,1.24.05.51.09,1.02.14,1.53.04.51.09,1.02.15,1.53,0,.15.02.31.04.47.02.23.05.47.07.7.07.75.15,1.49.23,2.24.02.27.06.55.09.82.11,1.07.23,2.15.36,3.22.04.41.09.82.15,1.23.04.34.07.68.12,1.01.04.34.08.68.13,1.02.02.19.05.38.07.57,0,.09.02.18.03.27.02.2.05.4.07.59.02.21.06.42.09.62.11.9.23,1.79.36,2.68,0,.07.02.15.02.23.03.23.06.45.1.69.02.17.05.35.07.52.08.57.17,1.15.26,1.72.07.55.16,1.1.24,1.65.02.13.03.25.06.37l.02.15c.04.3.09.61.14.9.14.88.28,1.75.43,2.62,0,.03,0,.07.02.1.02.12.04.23.06.36,0,.02,0,.04,0,.06.18,1.04.36,2.08.53,3.12.03.19.07.4.1.6.04.22.08.44.12.66,0,.06.02.14.03.2,0,0,0,.02,0,.04,0,.02,0,.05.02.08,0,0,0,.02,0,.03.1.61.22,1.23.33,1.84.02.08.03.17.05.26.12.63.24,1.27.36,1.9l.02.15s0,.03,0,.05c.02.11.04.23.06.35.09.44.17.89.26,1.32.04.19.07.37.11.56.02.12.05.24.07.36.02.11.05.23.06.34.09.44.17.88.27,1.31,0,.06.02.1.03.16.03.14.06.27.09.4.14.65.27,1.32.41,1.97.16.8.34,1.6.51,2.39.07.33.15.65.22.99l.07.31c.15.66.29,1.32.44,1.98.16.72.33,1.45.5,2.16.11.46.22.92.33,1.38.19.78.37,1.56.57,2.33,0,.04.02.09.03.13,0,.02,0,.04.02.06.18.72.36,1.45.54,2.16.11.46.23.91.35,1.36.12.45.23.9.36,1.36.15.55.28,1.1.44,1.64.02.1.05.21.08.31.08.31.17.62.25.93.1.36.19.71.29,1.07.05.19.11.36.15.55,0,.02,0,.04,0,.06.18.64.36,1.28.54,1.91.15.53.3,1.06.45,1.59.04.15.09.31.13.47,0,.03.02.07.03.1.05.19.1.38.17.57.18.61.35,1.22.53,1.82.02.06.04.13.06.19l.05.17c.02.06.03.1.05.16.06.22.13.43.19.65.13.45.27.9.41,1.35.1.34.2.68.31,1.01.02.09.05.18.08.27.11.38.23.76.35,1.13.02.06.04.13.06.19.03.11.07.23.1.34.3.97.61,1.95.93,2.91.02.07.04.14.06.21.02.06.04.11.06.17.1.31.2.61.3.92.02.08.05.15.07.23.25.78.51,1.55.78,2.32.12.37.24.74.37,1.11.06.17.11.35.18.52.31.94.64,1.87.97,2.81,0,.03.02.06.03.1.24.69.48,1.39.73,2.08.11.32.23.65.35.97.15.43.31.86.47,1.29.08.22.16.44.24.65.02.06.04.12.06.19.11.3.22.61.33.9.18.48.36.96.54,1.45.07.19.15.38.22.57,0,0,.04.11.08.22.11.29.58,1.77,1.2,3.79-7.08.1-14.15.2-21.23.31-17.16-48.35-23.47-92.81-23.5-132.49,0-1.52,0-3.04.02-4.55v-.05c.02-1.28.04-2.57.06-3.84,0-.2,0-.4.02-.61,0-.32.02-.64.02-.96.02-1.11.06-2.23.1-3.33,0-.05,0-.1,0-.15,0-.27.02-.55.03-.82.03-1.07.08-2.14.13-3.21,0-.13,0-.27.02-.4.04-1.01.1-2.03.15-3.04,0-.1,0-.19.02-.28,0-.05,0-.09,0-.14.04-.79.08-1.58.14-2.37.07-1.23.15-2.45.24-3.68.11-1.51.22-3.02.35-4.52.12-1.51.25-3.01.4-4.51.14-1.42.27-2.85.43-4.27.04-.4.08-.79.13-1.18.1-.89.19-1.78.3-2.67,0-.06.02-.12.02-.19.06-.52.11-1.05.19-1.57.14-1.19.28-2.37.44-3.55.15-1.17.31-2.34.47-3.5,0-.07.02-.14.03-.21.11-.82.23-1.64.36-2.45.08-.58.16-1.15.25-1.74,0-.05.02-.09.02-.14.1-.65.19-1.29.3-1.93.17-1.11.35-2.21.53-3.32.19-1.13.38-2.26.57-3.38.03-.16.06-.32.09-.48.07-.43.15-.86.23-1.28.18-1.01.36-2.02.56-3.03.08-.44.16-.88.25-1.31.2-1.05.4-2.1.61-3.14.06-.3.11-.59.18-.87.27-1.33.55-2.66.83-3.99.31-1.45.62-2.89.95-4.33.32-1.44.65-2.87,1-4.31.27-1.13.54-2.26.82-3.39,0,0,0-.02,0-.03.13-.52.25-1.03.39-1.54.17-.68.34-1.36.52-2.03.04-.15.08-.3.12-.44.19-.73.37-1.44.57-2.16,0-.03.02-.06.02-.09.08-.33.17-.66.27-.99,0-.02,0-.04.02-.06.23-.87.47-1.74.71-2.61.34-1.24.69-2.46,1.04-3.69.34-1.19.69-2.37,1.04-3.55.28-.97.58-1.94.88-2.9.25-.82.5-1.63.76-2.45.02-.09.05-.19.08-.27.8-2.53,1.62-5.05,2.47-7.55.34-1.01.69-2.02,1.04-3.03.03-.08.06-.17.09-.25.27-.76.53-1.52.8-2.28.22-.61.44-1.23.66-1.83.2-.57.4-1.13.61-1.69.9-2.45,1.82-4.88,2.76-7.31h21.78Z"/>
      <path class="cls-10" d="M161.51,690.82s0,0,0,0"/>
      <path class="cls-10" d="M160.16,690.84s-.02.04-.03.06"/>
      <path class="cls-10" d="M160.16,690.84s-.02.04-.03.06"/>
      <path class="cls-10" d="M136.17,720.93c-1.83,0-3.31,1.5-3.31,3.34,0-.22-.02-.43-.06-.63-.04-.63-.07-1.28-.07-1.93,0-1.14.06-2.25.19-3.32.07-.26.11-.52.11-.8,0,1.85,1.31,3.34,3.14,3.34Z"/>
      <path class="cls-13" d="M116.55,733.95s0,0,0,.01t0-.01h1.14-1.14Z"/>
    </g>
  </g>
</svg>