<?xml version="1.0" encoding="UTF-8"?>
<svg xmlns="http://www.w3.org/2000/svg" xmlns:xlink="http://www.w3.org/1999/xlink" viewBox="0 0 1024 1024">
  <defs>
    <style>
      .cls-1 {
        fill: url(#Dégradé_sans_nom_7);
      }

      .cls-2 {
        fill: url(#Dégradé_sans_nom_7-2);
      }

      .cls-3 {
        fill: url(#Dégradé_sans_nom_7-3);
      }
    </style>
    <linearGradient id="Dégradé_sans_nom_7" data-name="Dégradé sans nom 7" x1="137.93" y1="360.66" x2="921.66" y2="360.66" gradientUnits="userSpaceOnUse">
      <stop offset="0" stop-color="#29abe2"/>
      <stop offset="1" stop-color="#000"/>
    </linearGradient>
    <linearGradient id="Dégradé_sans_nom_7-2" data-name="Dégradé sans nom 7" y1="517.09" y2="517.09" xlink:href="#Dégradé_sans_nom_7"/>
    <linearGradient id="Dégradé_sans_nom_7-3" data-name="Dégradé sans nom 7" x1="137.91" y1="661.1" x2="921.64" y2="661.1" xlink:href="#Dégradé_sans_nom_7"/>
  </defs>
  <g id="Calque_2" data-name="Calque 2">
    <path class="cls-1" d="M920.14,367.45c-14.79,12.74-36.84,28.5-67.61,41.96-32.89,14.39-60.14,18.44-79.83,21.22-49.84,7.03-90.85,1.89-117.04-1.57-6.73-.89-15.96-2.24-28.17-4.52-58.64-10.94-91.37-25.56-158.09-47.13-82.11-26.54-124.73-34.21-163.3-37.04-18.64-1.37-29.93-1.14-36.52-.87-53.38,2.18-95.41,19.03-121.91,32.52-2.65.95-5.55.53-7.47-1.18-2.63-2.35-3.1-6.82-.64-10.24,25.26-22.1,49.4-35.44,66.5-43.38,28.52-13.25,51.9-18.31,70.31-22.06,32.71-6.67,58.57-7.21,75.65-7.48,0,0,28.2-2.04,56,2.43,57.52,9.25,86.37,13.41,175.3,44.17,42.45,14.68,103.56,40.37,157.82,47.58,38.31,5.08,96.79,11.44,170.22-25.27,1.74-.87,4.74-2.43,8.87,2.35,2.15,2.49,1.69,6.23-.09,8.52Z"/>
  </g>
  <g id="Calque_3" data-name="Calque 3">
    <path class="cls-2" d="M920.14,523.87c-14.79,12.74-36.84,28.5-67.61,41.96-32.89,14.39-60.14,18.44-79.83,21.22-49.84,7.03-90.85,1.89-117.04-1.57-6.73-.89-15.96-2.24-28.17-4.52-58.64-10.94-91.37-25.56-158.09-47.13-82.11-26.54-124.73-34.21-163.3-37.04-18.64-1.37-29.93-1.14-36.52-.87-53.38,2.18-95.41,19.03-121.91,32.52-2.65.95-5.55.53-7.47-1.18-2.63-2.35-3.1-6.82-.64-10.24,25.26-22.1,49.4-35.44,66.5-43.38,28.52-13.25,51.9-18.31,70.31-22.06,32.71-6.67,58.57-7.21,75.65-7.48,0,0,28.2-2.04,56,2.43,57.52,9.25,86.37,13.41,175.3,44.17,42.45,14.68,103.56,40.37,157.82,47.58,38.31,5.08,96.79,11.44,170.22-25.27,1.74-.87,4.74-2.43,8.87,2.35,2.15,2.49,1.69,6.23-.09,8.52Z"/>
  </g>
  <g id="Calque_4" data-name="Calque 4">
    <path class="cls-3" d="M920.1,669.78c-14.85,12.67-36.99,28.31-67.82,41.61-32.97,14.22-60.23,18.14-79.93,20.81-49.88,6.78-90.86,1.44-117.03-2.16-6.72-.92-15.95-2.32-28.15-4.66-58.58-11.24-91.24-26.02-157.85-47.93-81.97-26.96-124.56-34.84-163.12-37.87-18.63-1.46-29.92-1.29-36.52-1.05-53.39,1.91-95.5,18.55-122.08,31.91-2.66.94-5.55.5-7.47-1.22-2.62-2.36-3.06-6.83-.59-10.25,25.37-21.97,49.58-35.19,66.72-43.05,28.59-13.1,52-18.04,70.42-21.7,32.74-6.5,58.61-6.91,75.69-7.1,0,0,28.21-1.89,55.99,2.72,57.47,9.54,86.3,13.85,175.08,45.06,42.38,14.9,103.35,40.9,157.58,48.37,38.28,5.28,96.74,11.93,170.35-24.41,1.74-.86,4.75-2.41,8.86,2.39,2.14,2.5,1.66,6.24-.13,8.52Z"/>
  </g>
</svg>